{"title":"Bloodrayne.The.Third.Reich.2010.BRRip.720p.x264.Feel-Free","uid":6521708,"size":1902770085,"categoryP":"video","categoryS":"hd___movies","magnet":"?xt=urn:btih:5034816e3cd18909dca2355f9531409fb2c90dce&amp;dn=Bloodrayne.The.Third.Reich.2010.BRRip.720p.x264.Feel-Free&amp;tr=udp%3A%2F%2Ftracker.openbittorrent.com%3A80&amp;tr=udp%3A%2F%2Fopen.demonii.com%3A1337&amp;tr=udp%3A%2F%2Ftracker.coppersurfer.tk%3A6969&amp;tr=udp%3A%2F%2Fexodus.desync.com%3A6969","seeders":0,"leechers":1,"uploader":".BONE.","files":11,"time":1310018107,"description":"Genre:Action | Adventure | Comedy\nLanguage:English\n &lt;a href=&quot;\nhttp://www.imdb.com/title/tt1153546/&quot; rel=&quot;nofollow&quot; target=&quot;_NEW&quot;&gt;\nhttp://www.imdb.com/title/tt1153546/&lt;/a&gt;\n\nSource:BluRay.1080p.X264.MySiLU Thanks!\nSubtitles:Romana\n\nFormat : MPEG-4\nFormat profile : Base Media\nCodec ID : isom\nFile size : 1.77 GiB\nDuration : 1h 15mn\nOverall bit rate : 3 336 Kbps\n\nVideo\nID : 1\nFormat : AVC\nFormat/Info : Advanced Video Codec\nFormat profile : &lt;a class=&quot;__cf_email__&quot; href=&quot;/cdn-cgi/l/email-protection&quot; data-cfemail=&quot;e5ad8c828da5a9d1cbd4&quot;&gt;[email&amp;#160;protected]&lt;/a&gt;&lt;script cf-hash='f9e31' type=&quot;text/javascript&quot;&gt;\n/* &lt;![CDATA[ */!function(){try{var t=&quot;currentScript&quot;in document?document.currentScript:function(){for(var t=document.getElementsByTagName(&quot;script&quot;),e=t.length;e--;)if(t[e].getAttribute(&quot;cf-hash&quot;))return t[e]}();if(t&amp;&amp;t.previousSibling){var e,r,n,i,c=t.previousSibling,a=c.getAttribute(&quot;data-cfemail&quot;);if(a){for(e=&quot;&quot;,r=parseInt(a.substr(0,2),16),n=2;a.length-n;n+=2)i=parseInt(a.substr(n,2),16)^r,e+=String.fromCharCode(i);e=document.createTextNode(e),c.parentNode.replaceChild(e,c)}}}catch(u){}}();/* ]]&gt; */&lt;/script&gt;\nFormat settings, CABAC : Yes\nFormat settings, ReFrames : 3 frames\nFormat settings, GOP : M=1, N=22\nCodec ID : avc1\nCodec ID/Info : Advanced Video Coding\nDuration : 1h 15mn\nBit rate mode : Variable\nBit rate : 3 000 Kbps\nMaximum bit rate : 22.4 Mbps\nWidth : 1 280 pixels\nHeight : 536 pixels\nDisplay aspect ratio : 2.35:1\nFrame rate mode : Constant\nFrame rate : 25.000 fps\nColor space : YUV\nChroma subsampling : 4:2:0\nBit depth : 8 bits\nScan type : Progressive\nBits/(Pixel*Frame) : 0.175\nStream size : 1.53 GiB (87%)\nWriting library : x264\n\nAudio\nID : 2\nFormat : AAC\nFormat/Info : Advanced Audio Codec\nFormat version : Version 4\nFormat profile : LC\nFormat settings, SBR : No\nCodec ID : 40\nDuration : 1h 15mn\nBit rate mode : Variable\nBit rate : 446 Kbps\nMaximum bit rate : 559 Kbps\nChannel(s) : 6 channels\nChannel positions : Front: L C R, Side: L R, LFE\nSampling rate : 48.0 KHz\nStream size : 242 MiB (13%)\n\n\nPlot:\nRayne fights against the Nazis in Europe during World War II, encountering Ekart Brand, a Nazi leader..\n &lt;a href=&quot;\nhttp://leetleech.org/images/17459215936581730094.png&quot; rel=&quot;nofollow&quot; target=&quot;_NEW&quot;&gt;\nhttp://leetleech.org/images/17459215936581730094.png&lt;/a&gt;\n &lt;a href=&quot;\nhttp://leetleech.org/images/25630297325714267482.png&quot; rel=&quot;nofollow&quot; target=&quot;_NEW&quot;&gt;\nhttp://leetleech.org/images/25630297325714267482.png&lt;/a&gt;\n &lt;a href=&quot;\nhttp://leetleech.org/images/02310948028048495091.png&quot; rel=&quot;nofollow&quot; target=&quot;_NEW&quot;&gt;\nhttp://leetleech.org/images/02310948028048495091.png&lt;/a&gt;\n &lt;a href=&quot;\nhttp://leetleech.org/images/34672568273183232933.png&quot; rel=&quot;nofollow&quot; target=&quot;_NEW&quot;&gt;\nhttp://leetleech.org/images/34672568273183232933.png&lt;/a&gt;\n &lt;a href=&quot;\nhttp://leetleech.org/images/36669743357379024106.png&quot; rel=&quot;nofollow&quot; target=&quot;_NEW&quot;&gt;\nhttp://leetleech.org/images/36669743357379024106.png&lt;/a&gt;\n &lt;a href=&quot;\nhttp://leetleech.org/images/80427210327938280361.png&quot; rel=&quot;nofollow&quot; target=&quot;_NEW&quot;&gt;\nhttp://leetleech.org/images/80427210327938280361.png&lt;/a&gt;","torrent":{"xt":"urn:btih:5034816e3cd18909dca2355f9531409fb2c90dce","amp;dn":"Bloodrayne.The.Third.Reich.2010.BRRip.720p.x264.Feel-Free","amp;tr":["udp%3A%2F%2Ftracker.openbittorrent.com%3A80","udp%3A%2F%2Fopen.demonii.com%3A1337","udp%3A%2F%2Ftracker.coppersurfer.tk%3A6969","udp%3A%2F%2Fexodus.desync.com%3A6969"],"infoHash":"5034816e3cd18909dca2355f9531409fb2c90dce","infoHashBuffer":{"type":"Buffer","data":[80,52,129,110,60,209,137,9,220,162,53,95,149,49,64,159,178,201,13,206]},"announce":[],"urlList":[]}}